<mxfile host="Electron" agent="Mozilla/5.0 (Windows NT 10.0; Win64; x64) AppleWebKit/537.36 (KHTML, like Gecko) draw.io/24.7.8 Chrome/128.0.6613.36 Electron/32.0.1 Safari/537.36" version="24.7.8">
  <diagram name="Seite-1" id="sXgBdFNS4Iq4SZMFfz9C">
    <mxGraphModel dx="712" dy="311" grid="1" gridSize="10" guides="1" tooltips="1" connect="1" arrows="1" fold="1" page="1" pageScale="1" pageWidth="827" pageHeight="1169" math="0" shadow="0">
      <root>
        <mxCell id="0" />
        <mxCell id="1" parent="0" />
        <mxCell id="Uh5D1-d9lzjAH5gLcX9P-5" style="edgeStyle=orthogonalEdgeStyle;rounded=0;orthogonalLoop=1;jettySize=auto;html=1;entryX=0;entryY=0.5;entryDx=0;entryDy=0;" parent="1" source="Uh5D1-d9lzjAH5gLcX9P-1" target="Uh5D1-d9lzjAH5gLcX9P-4" edge="1">
          <mxGeometry relative="1" as="geometry" />
        </mxCell>
        <mxCell id="Uh5D1-d9lzjAH5gLcX9P-1" value="" style="ellipse;whiteSpace=wrap;html=1;aspect=fixed;fillColor=#000000;" parent="1" vertex="1">
          <mxGeometry x="40" y="240" width="40" height="40" as="geometry" />
        </mxCell>
        <mxCell id="Uh5D1-d9lzjAH5gLcX9P-2" value="" style="ellipse;whiteSpace=wrap;html=1;aspect=fixed;" parent="1" vertex="1">
          <mxGeometry x="880" y="240" width="40" height="40" as="geometry" />
        </mxCell>
        <mxCell id="Uh5D1-d9lzjAH5gLcX9P-3" value="" style="ellipse;whiteSpace=wrap;html=1;aspect=fixed;fillColor=#000000;" parent="1" vertex="1">
          <mxGeometry x="886.41" y="246.40999999999997" width="27.18" height="27.18" as="geometry" />
        </mxCell>
        <mxCell id="Uh5D1-d9lzjAH5gLcX9P-14" style="edgeStyle=orthogonalEdgeStyle;rounded=0;orthogonalLoop=1;jettySize=auto;html=1;entryX=0;entryY=0.5;entryDx=0;entryDy=0;" parent="1" source="Uh5D1-d9lzjAH5gLcX9P-4" target="Uh5D1-d9lzjAH5gLcX9P-6" edge="1">
          <mxGeometry relative="1" as="geometry" />
        </mxCell>
        <mxCell id="Uh5D1-d9lzjAH5gLcX9P-4" value="PowerCard" style="rounded=1;whiteSpace=wrap;html=1;" parent="1" vertex="1">
          <mxGeometry x="120" y="230" width="120" height="60" as="geometry" />
        </mxCell>
        <mxCell id="Uh5D1-d9lzjAH5gLcX9P-13" style="edgeStyle=orthogonalEdgeStyle;rounded=0;orthogonalLoop=1;jettySize=auto;html=1;entryX=0;entryY=0.5;entryDx=0;entryDy=0;" parent="1" source="Uh5D1-d9lzjAH5gLcX9P-6" target="Uh5D1-d9lzjAH5gLcX9P-7" edge="1">
          <mxGeometry relative="1" as="geometry" />
        </mxCell>
        <mxCell id="Uh5D1-d9lzjAH5gLcX9P-6" value="RollDice" style="rounded=1;whiteSpace=wrap;html=1;" parent="1" vertex="1">
          <mxGeometry x="280" y="230" width="120" height="60" as="geometry" />
        </mxCell>
        <mxCell id="Uh5D1-d9lzjAH5gLcX9P-12" style="edgeStyle=orthogonalEdgeStyle;rounded=0;orthogonalLoop=1;jettySize=auto;html=1;entryX=0;entryY=0.5;entryDx=0;entryDy=0;" parent="1" source="Uh5D1-d9lzjAH5gLcX9P-7" target="Uh5D1-d9lzjAH5gLcX9P-8" edge="1">
          <mxGeometry relative="1" as="geometry" />
        </mxCell>
        <mxCell id="Uh5D1-d9lzjAH5gLcX9P-7" value="ChoosePiece" style="rounded=1;whiteSpace=wrap;html=1;" parent="1" vertex="1">
          <mxGeometry x="440" y="230" width="120" height="60" as="geometry" />
        </mxCell>
        <mxCell id="Uh5D1-d9lzjAH5gLcX9P-10" style="edgeStyle=orthogonalEdgeStyle;rounded=0;orthogonalLoop=1;jettySize=auto;html=1;entryX=0;entryY=0.5;entryDx=0;entryDy=0;" parent="1" source="Uh5D1-d9lzjAH5gLcX9P-8" target="Uh5D1-d9lzjAH5gLcX9P-9" edge="1">
          <mxGeometry relative="1" as="geometry" />
        </mxCell>
        <mxCell id="Uh5D1-d9lzjAH5gLcX9P-8" value="MovePiece" style="rounded=1;whiteSpace=wrap;html=1;" parent="1" vertex="1">
          <mxGeometry x="600" y="230" width="120" height="60" as="geometry" />
        </mxCell>
        <mxCell id="Uh5D1-d9lzjAH5gLcX9P-11" style="edgeStyle=orthogonalEdgeStyle;rounded=0;orthogonalLoop=1;jettySize=auto;html=1;entryX=0;entryY=0.5;entryDx=0;entryDy=0;" parent="1" source="Uh5D1-d9lzjAH5gLcX9P-9" target="Uh5D1-d9lzjAH5gLcX9P-2" edge="1">
          <mxGeometry relative="1" as="geometry" />
        </mxCell>
        <mxCell id="Uh5D1-d9lzjAH5gLcX9P-15" style="edgeStyle=orthogonalEdgeStyle;rounded=0;orthogonalLoop=1;jettySize=auto;html=1;entryX=0.5;entryY=1;entryDx=0;entryDy=0;" parent="1" source="Uh5D1-d9lzjAH5gLcX9P-9" target="Uh5D1-d9lzjAH5gLcX9P-6" edge="1">
          <mxGeometry relative="1" as="geometry">
            <Array as="points">
              <mxPoint x="797" y="310" />
              <mxPoint x="340" y="310" />
            </Array>
          </mxGeometry>
        </mxCell>
        <mxCell id="Uh5D1-d9lzjAH5gLcX9P-9" value="" style="rhombus;whiteSpace=wrap;html=1;" parent="1" vertex="1">
          <mxGeometry x="767" y="245" width="60" height="30" as="geometry" />
        </mxCell>
        <mxCell id="Uh5D1-d9lzjAH5gLcX9P-16" value="[Spieler hat 6 gew체rfelt]" style="text;html=1;align=center;verticalAlign=middle;resizable=0;points=[];autosize=1;strokeColor=none;fillColor=none;" parent="1" vertex="1">
          <mxGeometry x="655" y="308" width="150" height="30" as="geometry" />
        </mxCell>
        <mxCell id="Uh5D1-d9lzjAH5gLcX9P-17" value="sonst" style="text;html=1;align=center;verticalAlign=middle;resizable=0;points=[];autosize=1;strokeColor=none;fillColor=none;" parent="1" vertex="1">
          <mxGeometry x="827" y="230" width="50" height="30" as="geometry" />
        </mxCell>
        <mxCell id="lQyYDzL_I2UZiROKzIM_-1" value="Turn" style="shape=umlFrame;whiteSpace=wrap;html=1;pointerEvents=0;recursiveResize=0;container=1;collapsible=0;width=160;" parent="1" vertex="1">
          <mxGeometry y="160" width="960" height="200" as="geometry" />
        </mxCell>
        <mxCell id="eEpMS-Wehw8ktOAA1XjE-3" value="[Bonuskarte gew채hlt&amp;nbsp;&lt;div&gt;und ausgespielt]&lt;/div&gt;" style="text;html=1;align=center;verticalAlign=middle;resizable=0;points=[];autosize=1;strokeColor=none;fillColor=none;" vertex="1" parent="lQyYDzL_I2UZiROKzIM_-1">
          <mxGeometry x="210" y="30" width="140" height="40" as="geometry" />
        </mxCell>
        <mxCell id="eEpMS-Wehw8ktOAA1XjE-4" value="[Figur gew채hlt]" style="text;html=1;align=center;verticalAlign=middle;resizable=0;points=[];autosize=1;strokeColor=none;fillColor=none;" vertex="1" parent="lQyYDzL_I2UZiROKzIM_-1">
          <mxGeometry x="540" y="40" width="100" height="30" as="geometry" />
        </mxCell>
        <mxCell id="eEpMS-Wehw8ktOAA1XjE-2" value="[gew체rfelt]" style="text;html=1;align=center;verticalAlign=middle;resizable=0;points=[];autosize=1;strokeColor=none;fillColor=none;" vertex="1" parent="lQyYDzL_I2UZiROKzIM_-1">
          <mxGeometry x="390" y="40" width="80" height="30" as="geometry" />
        </mxCell>
        <mxCell id="eEpMS-Wehw8ktOAA1XjE-5" value="[Figur bewegt]" style="text;html=1;align=center;verticalAlign=middle;resizable=0;points=[];autosize=1;strokeColor=none;fillColor=none;" vertex="1" parent="lQyYDzL_I2UZiROKzIM_-1">
          <mxGeometry x="720" y="50" width="100" height="30" as="geometry" />
        </mxCell>
      </root>
    </mxGraphModel>
  </diagram>
</mxfile>
